<?xml version="1.0" standalone="no"?>
<!DOCTYPE svg PUBLIC "-//W3C//DTD SVG 20010904//EN"
 "http://www.w3.org/TR/2001/REC-SVG-20010904/DTD/svg10.dtd">
<svg version="1.0" xmlns="http://www.w3.org/2000/svg"
 width="48.000000pt" height="48.000000pt" viewBox="0 0 48.000000 48.000000"
 preserveAspectRatio="xMidYMid meet">
<metadata>
Created by potrace 1.15, written by Peter Selinger 2001-2017
</metadata>
<g transform="translate(0.000000,48.000000) scale(0.100000,-0.100000)"
fill="#000000" stroke="none">
<path d="M73 314 c-18 -18 -23 -34 -23 -72 0 -32 5 -54 15 -62 11 -9 15 -33
15 -91 l0 -79 50 0 50 0 0 98 c0 53 4 91 8 85 7 -10 12 -10 25 0 15 11 15 16
1 65 -17 56 -38 75 -88 78 -19 1 -37 -6 -53 -22z"/>
</g>
</svg>
